<svg width="197" height="349" viewBox="0 0 197 349" fill="none" xmlns="http://www.w3.org/2000/svg">
<path d="M172.426 1.36L189.588 17.7144L195.481 25.2979" stroke="#60A5FA" stroke-width="1.08501" stroke-linecap="round" stroke-linejoin="round"/>
<path d="M160.28 347.807L163.573 345.354L181.636 326.901L195.516 307.83" stroke="#60A5FA" stroke-width="1.08501" stroke-linecap="round" stroke-linejoin="round"/>
<path d="M132.628 347.81L135.357 346.367L153.741 332.389L170.241 315.239L184.588 295.224L195.512 274.596" stroke="#60A5FA" stroke-width="1.08501" stroke-linecap="round" stroke-linejoin="round"/>
<path d="M25.635 1.37832L16.8631 4.62903L0.724609 13.6475" stroke="#60A5FA" stroke-width="1.08501" stroke-linecap="round" stroke-linejoin="round"/>
<path d="M195.484 53.4267L194.41 51.5009L177.844 29.8461L159.478 12.0216L144.46 1.36328" stroke="#60A5FA" stroke-width="1.08501" stroke-linecap="round" stroke-linejoin="round"/>
<path d="M0.764528 331.329L3.85165 333.607L19.5746 342.128L35.3189 347.822" stroke="#60A5FA" stroke-width="1.08501" stroke-linecap="round" stroke-linejoin="round"/>
<path d="M94.3107 347.815L109.696 342.594L127.966 332.696L144.722 319.696L159.726 303.842L172.744 285.422L183.548 264.762L191.916 242.242L195.506 227.225" stroke="#60A5FA" stroke-width="1.08501" stroke-linecap="round" stroke-linejoin="round"/>
<path d="M0.744141 168.365L14.4643 169.649L29.4593 170.944L44.1615 172.114L58.462 173.159L72.2744 174.08L85.5226 174.875L98.1414 175.552L110.077 176.12L121.29 176.574L131.739 176.926L137.902 177.088" stroke="#60A5FA" stroke-width="1.08501" stroke-linecap="round" stroke-linejoin="round"/>
<path d="M167.533 1.36052L159.478 12.0217L149.991 25.1624L141.307 38.0209L133.605 50.5321L127.07 62.62L121.863 74.2194L118.143 85.2491L116.061 95.633L115.276 106.792L115.711 116.861L117.226 125.872L119.706 133.874L123.016 140.926L127.075 145.401L130.433 150.869L130.743 151.281L130.873 151.433L131.285 152.036" stroke="#60A5FA" stroke-width="1.08501" stroke-linecap="round" stroke-linejoin="round"/>
<path d="M0.76072 300.943L12.583 309.361L25.8969 316.244L39.9974 321L54.7376 323.45L69.9604 323.399L85.4865 320.642L101.121 314.954L116.142 306.419L129.855 295.393L142.087 282.084L152.653 266.741L161.396 249.64L168.148 231.074L172.768 211.381L175.125 190.911L175.111 170.03L172.646 149.117L167.679 128.562L160.196 108.772L150.667 90.9304L139.527 75.5247L127.07 62.62L113.587 52.2706L99.3563 44.4875L84.6428 39.2703L69.6801 36.6031L54.6907 36.464L39.8805 38.8203L25.4233 43.645L11.4818 50.9054L0.730279 58.7461" stroke="#60A5FA" stroke-width="1.08501" stroke-linecap="round" stroke-linejoin="round"/>
<path d="M0.745483 179.508L13.9717 179.49L29.0317 179.467L43.7825 179.432L58.1373 179.398L71.9983 179.353L85.2897 179.308L97.9464 179.257L109.914 179.202L121.149 179.146L131.62 179.09L137.902 179.052" stroke="#60A5FA" stroke-width="1.08501" stroke-linecap="round" stroke-linejoin="round"/>
<path d="M0.738095 120.38L12.2563 126.591L25.9174 133.387L39.4972 139.602L52.8761 145.232L65.9729 150.275L78.6952 154.744L90.9727 158.654L102.74 162.01L113.943 164.846L124.539 167.178L134.494 169.032L137.169 169.433" stroke="#60A5FA" stroke-width="1.08501" stroke-linecap="round" stroke-linejoin="round"/>
<path d="M99.4237 149.577L109.857 154.464L119.915 158.58L129.556 161.969L131.656 160.765L133.836 159.924L134.856 159.706" stroke="#60A5FA" stroke-width="1.08501" stroke-linecap="round" stroke-linejoin="round"/>
<path d="M127.652 163.461L136.495 165.75" stroke="#60A5FA" stroke-width="1.08501" stroke-linecap="round" stroke-linejoin="round"/>
<path d="M136.77 192.761L128.009 195.203L118.076 198.47L107.66 202.416L96.8161 207.072L85.5923 212.46L74.0594 218.614L62.2824 225.554L50.3483 233.292L38.3437 241.832L26.3717 251.176L14.5354 261.3L5.00471 270.508L0.757568 275.25" stroke="#60A5FA" stroke-width="1.08501" stroke-linecap="round" stroke-linejoin="round"/>
<path d="M195.505 217.715L184.475 214.765L172.768 211.381L162.72 208.149L154.495 205.079L148.256 202.194L143.069 199.097L139.586 196.309L140.794 185.513L140.788 174.516L139.522 163.487L136.966 152.605L133.096 142.054L128.136 132.441L122.298 124.027L115.711 116.862L108.517 110.971L100.84 106.399L92.8211 103.155L84.5748 101.263L76.22 100.743L67.8656 101.607L59.6252 103.865L51.5965 107.528L43.9315 112.558L37.0587 118.657L31.0486 125.639L25.9174 133.387L21.6815 141.775L18.3462 150.689L15.9333 160.014L14.4643 169.65L13.9718 179.491L14.4884 189.435L16.0413 199.39L18.6846 209.247L22.3856 218.745L26.9492 227.382L32.2938 235.09L38.3437 241.833L45.0172 247.544L52.2331 252.166L59.8992 255.62L67.934 257.849L76.2453 258.765L84.7301 258.281L93.2852 256.322L101.797 252.8L109.885 247.802L117.192 241.557L123.647 234.183L129.174 225.828L133.719 216.627L137.206 206.736L139.586 196.309L137.627 193.814L138.614 184.998L138.657 184.602L137.908 183.788L137.908 183.045L137.908 181.038L137.902 179.052L137.902 177.088L137.902 175.829L137.826 175.146L137.603 173.22L137.386 171.311L137.169 169.433L136.989 167.849L136.94 167.654L136.93 167.6L136.653 166.412L136.495 165.75L136.056 163.873L135.632 162.061L135.469 161.377L135.138 159.961L134.943 159.685L134.612 158.784L134.341 157.775L134.053 157.244L133.695 156.522L133.461 155.963L133.418 155.844L133.304 155.757L133.272 155.692L132.626 154.428L132.197 153.598L132.099 153.414L132.072 153.354L131.709 152.649L131.562 152.361L131.459 152.226L131.237 152.079L131.177 152.025L128.573 149.763L125.198 147.68L121.644 146.156L117.966 145.207L114.212 144.85L110.431 145.095L106.671 145.958L102.977 147.455L99.4238 149.577L88.676 143.887L77.6786 137.368L66.4966 129.98L55.2168 121.714L43.9315 112.558L32.7275 102.512L21.7186 91.5765L12.9396 81.6117L5.15873 71.2183L0.731049 64.291" stroke="#60A5FA" stroke-width="1.08501" stroke-linecap="round" stroke-linejoin="round"/>
<path d="M0.753489 243.383L6.77094 252.344L14.5354 261.3L23.1297 268.954L32.4507 275.208L42.4009 279.97L52.8718 283.131L63.7437 284.573L74.8976 284.176L86.1923 281.809L97.4868 277.348L108.266 270.875L118.046 262.682L126.714 252.937L134.167 241.809L140.301 229.504L145.03 216.223L148.256 202.194L149.898 187.643L149.885 172.811L148.169 157.947L144.701 143.294L139.464 129.135L132.767 116.284L124.9 105.099L116.061 95.6331L106.436 87.9251L96.2199 82.0077L85.5808 77.9022L74.6923 75.6197L63.7065 75.1654L52.7806 76.5338L42.0448 79.736L31.6239 84.7718L21.7185 91.5761L12.8767 99.7364L5.17427 109.009L0.737469 115.926" stroke="#60A5FA" stroke-width="1.08501" stroke-linecap="round" stroke-linejoin="round"/>
<path d="M0.762715 316.275L7.83224 321.401L22.3398 329.081L37.7422 334.46L53.8768 337.339L70.5752 337.478L87.6583 334.644L104.898 328.577L121.504 319.352L136.698 307.344L150.28 292.776L162.04 275.908L171.781 257.055L179.313 236.553L184.475 214.765L187.109 192.104L187.09 168.977L184.337 145.823L178.789 123.082L170.443 101.231L159.829 81.5716L147.436 64.6469L133.606 50.5326L118.674 39.2666L102.946 30.8652L86.7244 25.3065L70.2643 22.5635L53.8209 22.6035L37.6058 25.3724L21.8195 30.8319L6.6357 38.939L0.728409 43.3231" stroke="#60A5FA" stroke-width="1.08501" stroke-linecap="round" stroke-linejoin="round"/>
<path d="M0.739743 133.423L7.45084 136.243L21.6815 141.775L35.7819 146.84L49.6544 151.428L63.2013 155.544L76.3251 159.188L88.9604 162.376L101.042 165.12L112.517 167.429L123.34 169.327L133.48 170.839L137.386 171.31" stroke="#60A5FA" stroke-width="1.08501" stroke-linecap="round" stroke-linejoin="round"/>
<path d="M135.632 162.061L131.656 160.765L122.416 157.131L119.915 158.58L117.653 160.381L115.657 162.486L113.943 164.846L112.517 167.429L111.394 170.19L110.575 173.104L110.077 176.12L109.914 179.202L110.088 182.321L110.615 185.435L111.516 188.506L112.758 191.451L114.289 194.104L116.068 196.447L118.076 198.47L120.268 200.152L129.853 196.597L136.358 194.568" stroke="#60A5FA" stroke-width="1.08501" stroke-linecap="round" stroke-linejoin="round"/>
<path d="M0.734012 88.1612L3.17562 90.7649L12.8767 99.7366L24.9054 109.587L37.0587 118.656L49.2281 126.933L61.3107 134.413L73.225 141.106L84.8842 147.029L96.2179 152.198L107.155 156.639L117.653 160.381L127.652 163.461L129.556 161.969L136.056 163.873" stroke="#60A5FA" stroke-width="1.08501" stroke-linecap="round" stroke-linejoin="round"/>
<path d="M137.908 181.038L131.745 181.277L121.296 181.75L110.088 182.321L98.1532 183.001L85.5345 183.789L72.2865 184.686L58.4745 185.702L44.1796 186.832L29.4778 188.077L14.4884 189.435L0.746948 190.766" stroke="#60A5FA" stroke-width="1.08501" stroke-linecap="round" stroke-linejoin="round"/>
<path d="M0.758582 284.033L6.86792 289.658L18.2073 297.583L30.3603 303.706L43.2019 307.887L56.5966 309.958L70.3925 309.755L84.4324 307.101L98.5314 301.81L112.05 293.969L124.363 283.914L135.321 271.842L144.775 257.969L152.579 242.545L158.605 225.84L162.72 208.148L164.817 189.768L164.809 171.024L162.61 152.248L158.181 133.777L151.511 115.967L142.997 99.8719L133.029 85.9361L121.863 74.2193L109.753 64.7758L96.9437 57.6164L83.6679 52.7572L70.1375 50.1983L56.5531 49.9179L43.0937 51.8997L29.9277 56.1383L17.2012 62.6066L5.15864 71.2178L0.732364 75.439" stroke="#60A5FA" stroke-width="1.08501" stroke-linecap="round" stroke-linejoin="round"/>
<path d="M137.908 183.044L132.12 183.457L121.742 184.343L110.615 185.435L98.7829 186.738L86.2837 188.259L73.1661 190.013L59.5007 192L45.3686 194.226L30.846 196.691L16.0413 199.389L1.0684 202.315L0.748413 202.386" stroke="#60A5FA" stroke-width="1.08501" stroke-linecap="round" stroke-linejoin="round"/>
<path d="M137.918 1.36482L131.94 12.0801L124.846 25.8443L118.674 39.2667L113.587 52.2712L109.753 64.7765L107.324 76.6903L106.436 87.9257L106.931 100.034L108.517 110.971L111.057 120.785L114.443 129.513L118.562 137.222L123.016 140.927L126.147 145.706L127.053 147.084L130.401 150.892" stroke="#60A5FA" stroke-width="1.08501" stroke-linecap="round" stroke-linejoin="round"/>
<path d="M195.484 50.6494L194.41 51.5013L181.885 61.8105L170.298 71.8429L159.829 81.5713L150.667 90.9307L142.997 99.8722L136.982 108.347L132.767 116.284L129.725 124.797L128.136 132.441L127.861 139.26L128.746 145.304L130.661 150.609" stroke="#60A5FA" stroke-width="1.08501" stroke-linecap="round" stroke-linejoin="round"/>
<path d="M131.298 207.729L129.497 213.035L128.744 219.052L129.173 225.828L130.932 233.401L134.166 241.809L138.562 249.643L144.774 257.969L152.653 266.741L162.039 275.908L172.744 285.422L184.588 295.224L195.515 303.827" stroke="#60A5FA" stroke-width="1.08501" stroke-linecap="round" stroke-linejoin="round"/>
<path d="M137.762 185.085L132.76 185.612L122.496 186.91L111.516 188.506L99.8466 190.428L87.5428 192.681L74.6532 195.281L61.2428 198.234L47.3821 201.545L33.1635 205.214L18.6845 209.247L4.05353 213.632L0.749878 214.696" stroke="#60A5FA" stroke-width="1.08501" stroke-linecap="round" stroke-linejoin="round"/>
<path d="M135.106 160.373L133.836 159.923L125.015 156.111L115.943 151.473L112.84 152.705L109.857 154.463L107.155 156.639L104.779 159.167L102.74 162.01L101.042 165.119L99.7081 168.44L98.7375 171.933L98.1412 175.552L97.9463 179.257L98.153 183.001L98.7828 186.738L99.8465 190.427L101.328 193.964L103.151 197.154L105.273 199.98L107.66 202.416L110.275 204.45L113.086 206.055L122.622 201.481L131.828 197.698L135.967 196.276" stroke="#60A5FA" stroke-width="1.08501" stroke-linecap="round" stroke-linejoin="round"/>
<path d="M137.534 187.135L133.65 187.673L123.543 189.361L112.758 191.451L101.328 193.965L89.3011 196.917L76.7263 200.331L63.6632 204.212L50.1932 208.575L36.4033 213.416L22.3856 218.745L8.24323 224.541L0.751587 227.857" stroke="#60A5FA" stroke-width="1.08501" stroke-linecap="round" stroke-linejoin="round"/>
<path d="M0.756302 265.528L5.00467 270.508L14.4943 279.1L24.8029 286.162L35.8326 291.58L47.459 295.224L59.5625 296.964L71.9969 296.648L84.626 294.124L97.2767 289.245L109.379 282.093L120.38 272.989L130.149 262.105L138.562 249.642L145.499 235.824L150.846 220.882L154.495 205.079L156.359 188.673L156.346 171.953L154.402 155.201L150.472 138.698L144.546 122.765L136.982 108.347L128.105 95.8157L118.143 85.2489L107.324 76.6895L95.8549 70.1591L83.9409 65.6741L71.7667 63.2398L59.5223 62.8507L47.3595 64.5124L35.4357 68.2029L23.8918 73.9279L12.9396 81.6111L3.17562 90.7645L0.734712 93.7486" stroke="#60A5FA" stroke-width="1.08501" stroke-linecap="round" stroke-linejoin="round"/>
<path d="M3.98906 347.826L0.766377 346.042" stroke="#60A5FA" stroke-width="1.08501" stroke-linecap="round" stroke-linejoin="round"/>
<path d="M195.488 86.8452L194.87 85.2557L181.884 61.8102L166.779 41.7448L149.991 25.1624L131.94 12.0795L113.022 2.47936L109.528 1.36777" stroke="#60A5FA" stroke-width="1.08501" stroke-linecap="round" stroke-linejoin="round"/>
<path d="M135.317 199.152L135.599 202.716L137.205 206.736L140.293 211.228L145.03 216.224L150.846 220.883L158.604 225.841L168.148 231.075L179.313 236.552L191.916 242.242L195.508 243.771" stroke="#60A5FA" stroke-width="1.08501" stroke-linecap="round" stroke-linejoin="round"/>
<path d="M195.492 115.582L191.331 117.373L178.789 123.082L167.679 128.563L158.181 133.777L150.472 138.699L144.701 143.294L140.014 148.205L136.966 152.605L135.393 156.511L135.138 159.961" stroke="#60A5FA" stroke-width="1.08501" stroke-linecap="round" stroke-linejoin="round"/>
<path d="M0.741274 145.574L3.67087 146.48L18.3462 150.688L32.8642 154.538L47.1163 158.03L61.0103 161.158L74.454 163.934L87.3768 166.358L99.7083 168.44L111.394 170.19L122.396 171.632L132.677 172.775L137.603 173.22" stroke="#60A5FA" stroke-width="1.08501" stroke-linecap="round" stroke-linejoin="round"/>
<path d="M184.747 347.804L193.724 338.797L195.52 336.366" stroke="#60A5FA" stroke-width="1.08501" stroke-linecap="round" stroke-linejoin="round"/>
<path d="M137.312 189.094L134.735 189.528L124.829 191.569L114.289 194.104L103.151 197.155L91.4608 200.747L79.2712 204.899L66.6476 209.631L53.6607 214.95L40.397 220.87L26.9492 227.382L13.4199 234.479L0.753296 241.686" stroke="#60A5FA" stroke-width="1.08501" stroke-linecap="round" stroke-linejoin="round"/>
<path d="M127.652 163.461L125.981 165.208L124.539 167.178L123.34 169.326L122.396 171.632L121.708 174.057L121.29 176.574L121.149 179.146L121.296 181.75L121.741 184.343L122.496 186.909L123.543 189.361L124.829 191.569L126.327 193.522L128.009 195.203L129.853 196.597L131.828 197.698L133.906 198.49L135.235 198.778" stroke="#60A5FA" stroke-width="1.08501" stroke-linecap="round" stroke-linejoin="round"/>
<path d="M138.657 184.601L140.794 185.512L144.483 186.526L149.898 187.643L156.359 188.673L164.817 189.768L175.125 190.911L187.109 192.103L195.502 192.873" stroke="#60A5FA" stroke-width="1.08501" stroke-linecap="round" stroke-linejoin="round"/>
<path d="M137.035 191.6L137.627 193.813L137.161 195.869L135.599 202.716L135.507 202.982L132.622 211.174L133.718 216.626L136.226 222.723L140.301 229.504L145.499 235.824L152.579 242.545L161.396 249.639L171.78 257.054L183.548 264.762L195.512 272.106" stroke="#60A5FA" stroke-width="1.08501" stroke-linecap="round" stroke-linejoin="round"/>
<path d="M195.495 134.271L191.331 117.373L182.062 93.3788L170.298 71.8428L156.581 53.3667L141.308 38.0211L124.846 25.8439L107.561 16.8297L89.7606 10.9565L71.7544 8.18107L53.8083 8.43299L36.1556 11.6577L19.0077 17.7956L2.55454 26.7869L0.72653 28.1706" stroke="#60A5FA" stroke-width="1.08501" stroke-linecap="round" stroke-linejoin="round"/>
<path d="M195.495 142.908L184.336 145.823L172.645 149.117L162.609 152.249L154.402 155.201L148.169 157.947L142.999 160.872L139.522 163.487L137.574 165.809L136.989 167.849" stroke="#60A5FA" stroke-width="1.08501" stroke-linecap="round" stroke-linejoin="round"/>
<path d="M135.709 167.383L134.494 169.032L133.479 170.839L132.677 172.775L132.091 174.81L131.739 176.926L131.62 179.09L131.745 181.277L132.119 183.457L132.76 185.611L133.65 187.673L134.735 189.528L136.005 191.166" stroke="#60A5FA" stroke-width="1.08501" stroke-linecap="round" stroke-linejoin="round"/>
<path d="M131.412 207.057L131.168 207.436L131.07 207.512L127.826 211.3L124.018 214.615L119.782 217.311L119.039 218.315L114.385 224.598L109.519 232.91L105.289 242.29L101.797 252.799L99.1559 264.469L97.4867 277.348L97.2766 289.245L98.5314 301.81L101.121 314.954L104.898 328.576L109.696 342.594L111.758 347.813" stroke="#60A5FA" stroke-width="1.08501" stroke-linecap="round" stroke-linejoin="round"/>
<path d="M99.4235 149.577L96.2177 152.197L93.3916 155.241L90.9725 158.654L88.9601 162.375L87.3766 166.358L86.227 170.541L85.5223 174.875L85.2895 179.308L85.5343 183.789L86.2834 188.259L87.5426 192.68L89.3009 196.917L91.4605 200.747L93.9781 204.137L96.8158 207.072L99.9248 209.518L103.267 211.46L106.793 212.87L116.042 207.216L125.102 202.435L133.906 198.49L135.55 197.877" stroke="#60A5FA" stroke-width="1.08501" stroke-linecap="round" stroke-linejoin="round"/>
<path d="M0.736261 105.678L5.17435 109.009L18.0763 117.66L31.0486 125.639L43.9775 132.928L56.7652 139.529L69.3195 145.441L81.5538 150.669L93.3919 155.241L104.78 159.167L115.657 162.486L125.981 165.208L135.709 167.382L136.653 166.411" stroke="#60A5FA" stroke-width="1.08501" stroke-linecap="round" stroke-linejoin="round"/>
<path d="M0.748058 200.275L1.06831 202.315L4.05352 213.632L8.24316 224.541L13.4198 234.479L19.4917 243.375L26.3716 251.176L33.9676 257.804L42.198 263.196L50.9655 267.269L60.1668 269.926L69.7041 271.08L79.4638 270.623L89.3209 268.457L99.156 264.469L108.519 258.76L116.998 251.582L124.494 243.074L130.932 233.401L136.226 222.724L140.293 211.227L143.069 199.097L144.484 186.526L144.477 173.712L142.999 160.872L140.014 148.204L135.499 135.944L129.725 124.797L122.932 115.065L115.276 106.792L106.931 100.034L98.0551 94.8107L88.7887 91.1445L79.2837 89.0515L69.6757 88.5483L60.0898 89.6399L50.6506 92.3319L41.4718 96.6405L32.7274 102.512L24.9054 109.587L18.0762 117.66L12.2562 126.591L7.45075 136.242L3.67078 146.48L0.943301 157.184L0.742806 158.491" stroke="#60A5FA" stroke-width="1.08501" stroke-linecap="round" stroke-linejoin="round"/>
<path d="M136.927 192.077L136.005 191.166L126.327 193.522L116.068 196.447L105.273 199.98L93.9784 204.137L82.2446 208.951L70.1311 214.443L57.7085 220.623L45.0689 227.504L32.2938 235.09L19.4917 243.375L6.77097 252.345L0.755249 257.082" stroke="#60A5FA" stroke-width="1.08501" stroke-linecap="round" stroke-linejoin="round"/>
<path d="M135.709 167.383L136.93 167.599" stroke="#60A5FA" stroke-width="1.08501" stroke-linecap="round" stroke-linejoin="round"/>
<path d="M137.106 190.949L136.005 191.166" stroke="#60A5FA" stroke-width="1.08501" stroke-linecap="round" stroke-linejoin="round"/>
<path d="M133.918 202.401L132.979 202.906L130.31 203.167L127.673 203.004L125.102 202.435L122.622 201.48L120.268 200.152L110.275 204.45L99.9251 209.518L89.2709 215.395L78.3782 222.118L67.312 229.703L56.1645 238.179L45.0172 247.544L33.9676 257.804L23.1298 268.954L14.4944 279.1L6.86801 289.658L0.76062 299.576" stroke="#60A5FA" stroke-width="1.08501" stroke-linecap="round" stroke-linejoin="round"/>
<path d="M132.638 205.001L131.808 205.587L128.661 206.976L127.94 207.578L126.925 208.425L121.854 212.651L121.154 213.357L115.296 219.271L114.623 220.101L109.068 226.899L103.698 228.245L98.3379 228.675L93.0647 228.236L84.4779 237.025L76.0703 246.889L67.934 257.849L60.1669 269.926L52.8719 283.132L47.4591 295.225L43.2021 307.887L39.9975 321L37.7423 334.46L36.339 347.822" stroke="#60A5FA" stroke-width="1.08501" stroke-linecap="round" stroke-linejoin="round"/>
<path d="M195.499 168.286L187.09 168.977L175.112 170.03L164.81 171.025L156.347 171.953L149.885 172.811L144.477 173.713L140.788 174.516L138.65 175.216L137.902 175.829" stroke="#60A5FA" stroke-width="1.08501" stroke-linecap="round" stroke-linejoin="round"/>
<path d="M132.599 205.082L131.807 205.586L130.885 206.395L125.618 210.996L124.794 211.886L119.781 217.311L115.295 219.27L110.755 220.432L106.219 220.823L98.3376 228.674L90.6568 237.589L83.2636 247.61L76.245 258.765L69.7039 271.08L63.7435 284.573L59.5623 296.964L56.5964 309.958L54.7374 323.45L53.8765 337.339L53.8669 347.82" stroke="#60A5FA" stroke-width="1.08501" stroke-linecap="round" stroke-linejoin="round"/>
<path d="M133.771 202.694L132.979 202.906L132.382 203.297L125.471 207.811L122.276 208.116L119.124 207.91L116.043 207.216L113.086 206.055L103.267 211.46L93.226 217.732L83.0223 224.917L72.732 233.034L62.4418 242.111L52.233 252.165L42.198 263.196L32.4507 275.208L24.8028 286.162L18.2073 297.583L12.583 309.361L7.83215 321.4L3.85164 333.607L0.766235 345" stroke="#60A5FA" stroke-width="1.08501" stroke-linecap="round" stroke-linejoin="round"/>
<path d="M54.1543 1.3748L53.8079 8.43287L53.8206 22.6031L54.6904 36.4641L56.5529 49.918L59.522 62.8509L63.7062 75.1654L69.6755 88.5483L76.2197 100.743L83.2358 111.771L90.6368 121.66L98.3197 130.437L106.203 138.151L110.668 138.557L115.046 139.674L119.278 141.475L123.304 143.953L127.053 147.083L130.569 150.728L131.334 152.025L131.437 152.253L131.584 152.811L132.099 153.414" stroke="#60A5FA" stroke-width="1.08501" stroke-linecap="round" stroke-linejoin="round"/>
<path d="M72.8003 1.37217L71.7542 8.18066L70.2641 22.5627L69.6799 36.603L70.1374 50.1982L71.7665 63.2397L74.6921 75.6194L79.2835 89.0513L84.5745 101.262L90.4566 112.286L96.8269 122.142L102.969 130.078L103.598 130.886L110.044 137.879L110.668 138.557L117.347 144.643L117.966 145.207L123.853 149.698L125.41 150.891L128.486 151.694L131.454 152.974L132.072 153.353" stroke="#60A5FA" stroke-width="1.08501" stroke-linecap="round" stroke-linejoin="round"/>
<path d="M195.488 84.8818L194.87 85.2562L182.062 93.3791L170.443 101.231L160.196 108.773L151.511 115.968L144.546 122.766L139.464 129.136L135.499 135.945L133.096 142.054L132.093 147.49L132.338 152.302L133.201 154.813L133.575 155.904L133.695 156.522" stroke="#60A5FA" stroke-width="1.08501" stroke-linecap="round" stroke-linejoin="round"/>
<path d="M0.72547 20.2502L2.55447 26.7872L6.63566 38.9389L11.4819 50.9059L17.2012 62.6071L23.8918 73.9285L31.6239 84.7722L41.4719 96.641L51.5965 107.528L61.8891 117.427L72.2629 126.35L82.6204 134.313L92.88 141.337L102.977 147.455L112.84 152.706L122.416 157.131L125.015 156.111L127.651 155.536L130.304 155.389L132.93 155.66L133.369 155.887" stroke="#60A5FA" stroke-width="1.08501" stroke-linecap="round" stroke-linejoin="round"/>
<path d="M16.4721 1.37994L16.863 4.62951L19.0076 17.7959L21.8194 30.8319L25.4233 43.6455L29.9277 56.1389L35.4356 68.2036L42.0448 79.7364L50.6506 92.3324L59.6251 103.865L68.8652 114.329L78.2735 123.745L87.763 132.137L97.2524 139.53L106.671 145.958L115.943 151.474L119.095 150.768L122.269 150.578L125.41 150.892L131.432 154.711L132.93 155.66L133.304 155.757" stroke="#60A5FA" stroke-width="1.08501" stroke-linecap="round" stroke-linejoin="round"/>
<path d="M0.74273 157.141L0.943394 157.184L15.9333 160.014L30.7495 162.605L45.278 164.953L59.4269 167.056L73.0983 168.915L86.2273 170.541L98.7376 171.933L110.575 173.104L121.708 174.057L132.091 174.81L137.826 175.145" stroke="#60A5FA" stroke-width="1.08501" stroke-linecap="round" stroke-linejoin="round"/>
<path d="M92.2764 1.37035L89.7603 10.9567L86.7242 25.3064L84.6427 39.2708L83.6678 52.7577L83.9407 65.6747L85.5806 77.9026L88.7886 91.1449L92.8209 103.155L97.5638 113.967L102.914 123.628L108.156 131.277L108.774 132.178L113.787 134.298L118.589 140.574L119.278 141.475L124.427 146.878L125.198 147.68L129.468 151.293L131.454 152.974" stroke="#60A5FA" stroke-width="1.08501" stroke-linecap="round" stroke-linejoin="round"/>
<path d="M134.503 158.73L134.389 158.676L127.651 155.536L119.095 150.768L110.43 145.094L101.717 138.472L93.0196 130.85L87.7629 132.137L82.6202 134.313L77.6784 137.368L73.2248 141.106L69.3193 145.441L65.9727 150.276L63.2011 155.544L61.0101 161.159L59.4267 167.056L58.4618 173.159L58.1372 179.398L58.4742 185.702L59.5005 192.001L61.2427 198.234L63.663 204.212L66.6474 209.631L70.1309 214.443L74.0592 218.614L78.378 222.118L83.0222 224.917L87.9376 226.967L93.0644 228.236L101.749 220.477L110.461 213.722L119.124 207.91L127.673 203.005L134.839 199.548L134.991 199.472" stroke="#60A5FA" stroke-width="1.08501" stroke-linecap="round" stroke-linejoin="round"/>
<path d="M135.469 161.377L135.144 160.493L135.106 160.384L135.106 160.374L134.943 159.685L134.612 158.784L134.053 157.243L133.711 156.066L133.521 155.904L133.418 155.844L133.201 154.813L132.338 152.301L131.503 150.674L128.746 145.304L127.677 143.752L124.503 139.147L119.706 133.874L114.443 129.513L108.817 126.09L102.914 123.628L96.8272 122.143L90.6372 121.661L84.4256 122.188L78.2737 123.745L72.263 126.35L66.4967 129.98L61.3108 134.413L56.7653 139.529L52.8762 145.232L49.6545 151.428L47.1164 158.03L45.2781 164.953L44.1615 172.114L43.7826 179.433L44.1797 186.832L45.3687 194.227L47.3823 201.545L50.1933 208.575L53.6608 214.949L57.7086 220.623L62.2825 225.554L67.3121 229.704L72.7322 233.034L78.4777 235.491L84.4779 237.025L90.6572 237.589L96.9448 237.132L103.259 235.585L109.52 232.91L115.449 229.177L120.781 224.559L125.484 219.145L127.903 212.895L131.07 207.513L131.336 207.149L131.412 207.057L131.895 206.417L132.041 206.145L132.263 205.766L132.6 205.082L132.638 205.001L132.757 204.756L133.191 203.877L133.836 202.678L133.988 202.364L134.08 202.071L134.563 200.986L135.246 199.353L135.274 198.968L135.279 198.658L135.583 197.866L135.707 197.438" stroke="#60A5FA" stroke-width="1.08501" stroke-linecap="round" stroke-linejoin="round"/>
<path d="M134.232 202.228L133.712 203.525L132.79 206.335L131.982 207.979L129.498 213.035L125.484 219.145L124.02 226.224L123.647 234.183L124.494 243.075L126.714 252.937L130.149 262.105L135.321 271.842L142.087 282.084L150.28 292.776L159.727 303.842L170.242 315.239L181.636 326.901L193.724 338.797L195.52 340.522" stroke="#60A5FA" stroke-width="1.08501" stroke-linecap="round" stroke-linejoin="round"/>
<path d="M131.819 206.346L131.737 206.449L131.715 206.503L129.171 208.722L128.162 209.873L124.018 214.615L123.205 215.819L119.413 221.413L114.385 224.598L109.068 226.899L103.259 235.585L97.9656 245.378L93.2852 256.321L89.321 268.457L86.1924 281.809L84.626 294.124L84.4324 307.101L85.4865 320.642L87.6583 334.643L90.5244 347.815" stroke="#60A5FA" stroke-width="1.08501" stroke-linecap="round" stroke-linejoin="round"/>
<path d="M133.191 203.877L132.871 204.1L128.661 206.976L125.471 207.811L124.864 208.289L118.04 213.639L114.226 213.987L110.461 213.721L106.794 212.87L97.4036 219.435L87.9378 226.967L78.4776 235.491L69.1043 245.034L59.8993 255.62L50.9656 267.269L42.401 279.97L35.8327 291.58L30.3604 303.706L25.897 316.244L22.3399 329.08L19.5747 342.128L18.6694 347.824" stroke="#60A5FA" stroke-width="1.08501" stroke-linecap="round" stroke-linejoin="round"/>
<path d="M131.168 207.436L131.222 207.599L127.902 212.894L123.932 217.485L119.413 221.413L115.448 229.177L112.233 237.955L109.885 247.802L108.519 258.76L108.265 270.875L109.379 282.094L112.05 293.969L116.142 306.419L121.503 319.351L127.966 332.696L135.357 346.367L136.198 347.809" stroke="#60A5FA" stroke-width="1.08501" stroke-linecap="round" stroke-linejoin="round"/>
<path d="M138.657 184.602L138.65 175.216L138.65 175.195L138.427 173.29L137.575 165.809L137.195 164.209L136.782 162.435L135.393 156.511L135.165 155.887L134.969 155.361L132.093 147.489L127.86 139.26L122.868 132.04L117.226 125.872L111.057 120.784L104.465 116.809L97.5636 113.967L90.4565 112.286L83.2358 111.772L76.0097 112.451L68.865 114.329L61.8888 117.427L55.2165 121.714L49.2278 126.933L43.9772 132.929L39.4969 139.602L35.7816 146.84L32.8639 154.538L30.7492 162.606L29.459 170.944L29.0315 179.467L29.4774 188.076L30.8457 196.691L33.1632 205.214L36.403 213.416L40.3967 220.87L45.0686 227.504L50.3479 233.292L56.1642 238.179L62.4416 242.112L69.1039 245.035L76.0699 246.889L83.2636 247.61L90.5874 247.132L97.9653 245.378L105.289 242.291L112.232 237.955L118.498 232.562L124.02 226.225L128.744 219.052L132.622 211.174L132.789 206.335L133.711 203.525L133.836 202.678L133.917 202.402L133.993 202.244L134.156 202.152L134.563 200.986L134.991 199.472L135.273 198.968L135.582 197.866L135.707 197.438L135.967 196.277L136.358 194.568L136.77 192.761L136.927 192.077L137.035 191.6L137.106 190.949L137.312 189.094L137.534 187.135L137.762 185.085L137.908 183.788" stroke="#60A5FA" stroke-width="1.08501" stroke-linecap="round" stroke-linejoin="round"/>
<path d="M35.5901 1.37703L36.1557 11.6574L37.6058 25.3719L39.8806 38.8203L43.0938 51.8997L47.3596 64.5125L52.7807 76.5337L60.0899 89.6398L67.8656 101.607L76.01 112.45L84.4255 122.187L93.0199 130.85L98.3201 130.437L103.599 130.887L108.774 132.177L114.401 138.898L115.047 139.674L120.972 145.494L121.644 146.156L126.772 150.305L128.486 151.694L132.441 154.308L132.626 154.428" stroke="#60A5FA" stroke-width="1.08501" stroke-linecap="round" stroke-linejoin="round"/>
<path d="M133.939 157.189L133.906 157.173L130.304 155.388L122.269 150.577L114.212 144.85L106.203 138.151L101.717 138.471L97.2522 139.53L92.8798 141.337L88.6757 143.887L84.884 147.029L81.5535 150.669L78.695 154.744L76.3249 159.187L74.4537 163.935L73.0981 168.915L72.2741 174.08L71.9981 179.353L72.2863 184.686L73.1659 190.013L74.653 195.281L76.7261 200.331L79.271 204.899L82.2444 208.951L85.5921 212.46L89.2707 215.395L93.2259 217.733L97.4033 219.436L101.749 220.477L106.219 220.823L114.226 213.987L122.276 208.116L130.31 203.167L134.378 201.083L134.438 201.051" stroke="#60A5FA" stroke-width="1.08501" stroke-linecap="round" stroke-linejoin="round"/>
<path d="M131.976 206.205L131.895 206.417L131.222 207.599L127.826 211.3L126.888 212.786L123.932 217.485L120.781 224.559L118.498 232.562L117.192 241.557L116.998 251.582L118.046 262.682L120.38 272.989L124.363 283.915L129.855 295.393L136.698 307.344L144.723 319.696L153.741 332.389L163.573 345.354L165.521 347.806" stroke="#60A5FA" stroke-width="1.08501" stroke-linecap="round" stroke-linejoin="round"/>
<path d="M113.494 1.36719L113.022 2.47929L107.561 16.8294L102.946 30.8646L99.3562 44.4874L96.9435 57.6164L95.8547 70.1592L96.2197 82.0076L98.055 94.8106L100.84 106.398L104.465 116.808L108.817 126.09L113.787 134.298L118.562 137.221L122.534 142.863L123.304 143.953L127.628 148.721L128.572 149.763L131.122 151.9L131.334 152.025L131.475 152.193" stroke="#60A5FA" stroke-width="1.08501" stroke-linecap="round" stroke-linejoin="round"/>
<path d="M195.479 11.7737L189.588 17.7149L177.844 29.8469L166.779 41.7454L156.581 53.3672L147.436 64.6471L139.527 75.5253L133.03 85.9368L128.105 95.8165L124.9 105.099L122.932 115.065L122.298 124.028L122.869 132.04L124.503 139.147L127.075 145.402L130.569 150.729L130.873 151.434" stroke="#60A5FA" stroke-width="1.08501" stroke-linecap="round" stroke-linejoin="round"/>
<path d="M132.263 205.765L132.041 206.145L131.84 206.362L131.737 206.449L129.171 208.723L125.618 210.996L121.853 212.651L118.039 213.639L117.421 214.214L110.754 220.432L110.131 221.121L103.697 228.245L103.068 229.07L96.9443 237.132L90.5872 247.131L84.7297 258.281L79.4633 270.623L74.8972 284.176L71.9964 296.648L70.3921 309.756L69.9599 323.4L70.5747 337.478L71.6664 347.818" stroke="#60A5FA" stroke-width="1.08501" stroke-linecap="round" stroke-linejoin="round"/>
<path d="M0.609167 1.38708L0.65271 347.827L195.836 347.802L195.792 1.36255L0.609167 1.38708Z" stroke="#60A5FA" stroke-width="1.08501" stroke-linecap="round" stroke-linejoin="round"/>
</svg>
